<svg width="277" height="40" viewBox="0 0 277 40" fill="none" xmlns="http://www.w3.org/2000/svg">
<path d="M245.333 39.5976V4.37732H260.578C263.731 4.37732 266.448 4.89724 268.729 5.93707C271.01 6.94337 272.771 8.40249 274.012 10.3145C275.254 12.2264 275.874 14.5073 275.874 17.1572C275.874 19.7736 275.254 22.0378 274.012 23.9497C272.771 25.8281 271.01 27.2705 268.729 28.2768C266.448 29.2831 263.731 29.7862 260.578 29.7862H249.861L253.484 26.2139V39.5976H245.333ZM267.723 39.5976L258.918 26.8177H267.622L276.528 39.5976H267.723ZM253.484 27.1196L249.861 23.2956H260.126C262.641 23.2956 264.52 22.7589 265.761 21.6856C267.002 20.5786 267.622 19.0692 267.622 17.1572C267.622 15.2117 267.002 13.7023 265.761 12.6289C264.52 11.5555 262.641 11.0189 260.126 11.0189H249.861L253.484 7.14463V27.1196Z" fill="black"/>
<path d="M202.182 39.5976L217.88 4.37732H225.931L241.679 39.5976H233.126L220.245 8.50312H223.465L210.534 39.5976H202.182ZM210.031 32.0504L212.195 25.8617H230.308L232.522 32.0504H210.031Z" fill="black"/>
<path d="M187.923 12.1257C190.069 12.1257 191.981 12.5618 193.658 13.4339C195.369 14.2725 196.711 15.5807 197.684 17.3585C198.656 19.1027 199.143 21.3501 199.143 24.1006V39.5975H191.294V25.3082C191.294 23.1279 190.807 21.5178 189.834 20.478C188.895 19.4381 187.554 18.9182 185.809 18.9182C184.568 18.9182 183.444 19.1866 182.438 19.7232C181.465 20.2264 180.694 21.0147 180.124 22.088C179.587 23.1614 179.319 24.5367 179.319 26.2138V39.5975H171.47V12.5282H178.966V20.0251L177.558 17.761C178.53 15.9496 179.922 14.5576 181.734 13.5849C183.545 12.6121 185.608 12.1257 187.923 12.1257Z" fill="#0074FF"/>
<path d="M151.38 40.0001C148.496 40.0001 145.93 39.3963 143.682 38.1887C141.468 36.9812 139.707 35.3376 138.399 33.2579C137.125 31.1447 136.487 28.7463 136.487 26.0629C136.487 23.3459 137.125 20.9476 138.399 18.8679C139.707 16.7547 141.468 15.1111 143.682 13.9371C145.93 12.7295 148.496 12.1257 151.38 12.1257C154.231 12.1257 156.781 12.7295 159.028 13.9371C161.276 15.1111 163.037 16.7379 164.311 18.8176C165.586 20.8973 166.223 23.3124 166.223 26.0629C166.223 28.7463 165.586 31.1447 164.311 33.2579C163.037 35.3376 161.276 36.9812 159.028 38.1887C156.781 39.3963 154.231 40.0001 151.38 40.0001ZM151.38 33.5598C152.689 33.5598 153.863 33.2579 154.902 32.6541C155.942 32.0503 156.764 31.195 157.368 30.0881C157.972 28.9476 158.273 27.6059 158.273 26.0629C158.273 24.4864 157.972 23.1446 157.368 22.0377C156.764 20.9308 155.942 20.0754 154.902 19.4717C153.863 18.8679 152.689 18.566 151.38 18.566C150.072 18.566 148.898 18.8679 147.858 19.4717C146.818 20.0754 145.98 20.9308 145.343 22.0377C144.739 23.1446 144.437 24.4864 144.437 26.0629C144.437 27.6059 144.739 28.9476 145.343 30.0881C145.98 31.195 146.818 32.0503 147.858 32.6541C148.898 33.2579 150.072 33.5598 151.38 33.5598Z" fill="#0074FF"/>
<path d="M123.366 39.5976V12.5284H131.215V39.5976H123.366ZM127.291 8.75475C125.848 8.75475 124.674 8.33546 123.769 7.49689C122.863 6.65831 122.41 5.61847 122.41 4.37738C122.41 3.13628 122.863 2.09645 123.769 1.25787C124.674 0.419289 125.848 0 127.291 0C128.733 0 129.907 0.402518 130.813 1.20755C131.718 1.97905 132.171 2.98534 132.171 4.22643C132.171 5.53461 131.718 6.62477 130.813 7.49689C129.94 8.33546 128.766 8.75475 127.291 8.75475Z" fill="#0074FF"/>
<path d="M105.031 12.1258C107.178 12.1258 109.09 12.5619 110.767 13.434C112.478 14.2726 113.819 15.5808 114.792 17.3586C115.765 19.1028 116.251 21.3502 116.251 24.1007V39.5976H108.402V25.3083C108.402 23.128 107.916 21.5179 106.943 20.4781C106.004 19.4382 104.662 18.9183 102.918 18.9183C101.677 18.9183 100.553 19.1867 99.5468 19.7233C98.574 20.2265 97.8025 21.0148 97.2323 22.0881C96.6956 23.1615 96.4273 24.5368 96.4273 26.2139V39.5976H88.5782V2.26416H96.4273V20.0252L94.6662 17.7611C95.639 15.9497 97.031 14.5577 98.8424 13.585C100.654 12.6122 102.717 12.1258 105.031 12.1258Z" fill="#0074FF"/>
<path d="M70.9554 40.0001C68.641 40.0001 66.4103 39.7317 64.2636 39.195C62.1504 38.6248 60.4732 37.9204 59.2321 37.0818L61.8485 31.4466C63.0896 32.2181 64.5487 32.8554 66.2259 33.3585C67.9366 33.8281 69.6137 34.0629 71.2573 34.0629C73.0687 34.0629 74.3433 33.8449 75.0812 33.4088C75.8527 32.9728 76.2385 32.369 76.2385 31.5975C76.2385 30.9602 75.9366 30.4906 75.3328 30.1887C74.7626 29.8533 73.9911 29.6017 73.0183 29.434C72.0456 29.2663 70.9722 29.0985 69.7982 28.9308C68.6577 28.7631 67.5005 28.5451 66.3265 28.2767C65.1525 27.9749 64.0791 27.5388 63.1063 26.9686C62.1336 26.3983 61.3453 25.6268 60.7416 24.6541C60.1713 23.6813 59.8862 22.4235 59.8862 20.8805C59.8862 19.1698 60.3726 17.6603 61.3453 16.3522C62.3516 15.044 63.794 14.0209 65.6724 13.283C67.5508 12.5115 69.7982 12.1257 72.4146 12.1257C74.2594 12.1257 76.1378 12.327 78.0498 12.7295C79.9618 13.132 81.5551 13.719 82.8297 14.4905L80.2133 20.0754C78.9052 19.304 77.5802 18.784 76.2385 18.5157C74.9303 18.2138 73.6557 18.0629 72.4146 18.0629C70.6703 18.0629 69.3957 18.2977 68.5906 18.7673C67.7856 19.2369 67.3831 19.8406 67.3831 20.5786C67.3831 21.2495 67.6682 21.7526 68.2384 22.088C68.8422 22.4235 69.6305 22.6918 70.6032 22.8931C71.576 23.0943 72.6326 23.2788 73.7731 23.4465C74.9471 23.5807 76.1211 23.7987 77.2951 24.1006C78.4691 24.4025 79.5257 24.8386 80.4649 25.4088C81.4377 25.9455 82.2259 26.7002 82.8297 27.673C83.4335 28.6122 83.7354 29.8533 83.7354 31.3962C83.7354 33.0734 83.2322 34.5661 82.2259 35.8743C81.2196 37.1489 79.7605 38.1552 77.8485 38.8931C75.9701 39.6311 73.6724 40.0001 70.9554 40.0001Z" fill="#0074FF"/>
<path d="M47.3987 39.5975V34.3145L46.8956 33.1573V23.6981C46.8956 22.0209 46.3757 20.7128 45.3358 19.7736C44.3295 18.8344 42.7698 18.3647 40.6566 18.3647C39.2142 18.3647 37.7886 18.5996 36.3798 19.0692C35.0045 19.5052 33.8305 20.109 32.8578 20.8805L30.0402 15.3962C31.5161 14.3563 33.2939 13.5513 35.3735 12.9811C37.4532 12.4108 39.5664 12.1257 41.7132 12.1257C45.839 12.1257 49.0423 13.0985 51.3233 15.044C53.6042 16.9895 54.7447 20.0251 54.7447 24.1509V39.5975H47.3987ZM39.1471 40.0001C37.0339 40.0001 35.2226 39.6479 33.7131 38.9434C32.2037 38.2055 31.0465 37.216 30.2414 35.9749C29.4364 34.7338 29.0339 33.3417 29.0339 31.7988C29.0339 30.1887 29.4196 28.7799 30.1911 27.5723C30.9961 26.3648 32.254 25.4256 33.9647 24.7547C35.6754 24.0503 37.906 23.6981 40.6566 23.6981H47.8516V28.2767H41.5119C39.667 28.2767 38.3924 28.5786 37.688 29.1824C37.0171 29.7862 36.6817 30.5409 36.6817 31.4466C36.6817 32.4529 37.0674 33.2579 37.8389 33.8617C38.644 34.4319 39.7341 34.717 41.1094 34.717C42.4176 34.717 43.5916 34.4151 44.6314 33.8114C45.6713 33.174 46.426 32.2516 46.8956 31.044L48.1031 34.6667C47.5329 36.4109 46.4931 37.7359 44.9836 38.6416C43.4742 39.5472 41.5287 40.0001 39.1471 40.0001Z" fill="#0074FF"/>
<path d="M7.5472 20.2264H24.4529V26.7673H7.5472V20.2264ZM8.15098 39.5976H0V4.37732H26.6165V10.9182H8.15098V39.5976Z" fill="#0074FF"/>
</svg>
